<svg width="409" height="125" viewBox="0 0 409 125" fill="none" xmlns="http://www.w3.org/2000/svg">
<path d="M130.227 5.4838V1.3285H152.084V5.4838H143.617V28.694H138.693V5.4838H130.227Z" fill="white"/>
<path d="M160.912 16.6638V28.694H156.072V1.3285H160.805V11.6583H161.05C161.528 10.4999 162.273 9.58596 163.294 8.91644C164.304 8.24691 165.602 7.90684 167.166 7.90684C168.591 7.90684 169.835 8.2044 170.899 8.79953C171.962 9.39467 172.781 10.2661 173.366 11.4139C173.951 12.5616 174.238 13.9644 174.238 15.6223V28.694H169.399V16.3768C169.399 14.9953 169.048 13.9219 168.335 13.1461C167.623 12.3703 166.634 11.9877 165.357 11.9877C164.507 11.9877 163.741 12.1684 163.06 12.5404C162.39 12.9123 161.858 13.4437 161.486 14.1345C161.103 14.8252 160.922 15.6754 160.922 16.6638H160.912Z" fill="white"/>
<path d="M188.256 29.0978C186.193 29.0978 184.416 28.6727 182.927 27.8119C181.438 26.951 180.29 25.7289 179.481 24.1454C178.684 22.5619 178.279 20.7022 178.279 18.5554C178.279 16.4087 178.684 14.5914 179.492 12.9867C180.3 11.3926 181.428 10.1386 182.885 9.24586C184.342 8.35316 186.044 7.90681 188.011 7.90681C189.277 7.90681 190.479 8.10874 191.606 8.51257C192.734 8.91641 193.734 9.54343 194.606 10.3936C195.478 11.2438 196.159 12.3172 196.658 13.6243C197.158 14.9315 197.403 16.4831 197.403 18.2791V19.767H180.566V16.5044H192.766C192.766 15.5798 192.553 14.7508 192.159 14.0282C191.766 13.3055 191.223 12.7316 190.521 12.3065C189.819 11.8921 189.011 11.6795 188.075 11.6795C187.086 11.6795 186.214 11.9133 185.469 12.3916C184.725 12.8698 184.14 13.4968 183.725 14.262C183.31 15.0378 183.098 15.8773 183.087 16.7913V19.6394C183.087 20.8297 183.31 21.8605 183.746 22.7107C184.182 23.5609 184.789 24.2092 185.576 24.6662C186.363 25.1125 187.277 25.3463 188.33 25.3463C189.032 25.3463 189.671 25.2507 190.245 25.0487C190.819 24.8468 191.309 24.5493 191.734 24.1561C192.149 23.7628 192.468 23.274 192.681 22.7001L197.201 23.2102C196.914 24.4005 196.371 25.442 195.574 26.3347C194.776 27.2167 193.755 27.9075 192.521 28.3964C191.277 28.8852 189.862 29.1297 188.267 29.1297L188.256 29.0978Z" fill="white"/>
<path d="M234.491 10.553H229.492C229.354 9.73467 229.088 9.00138 228.705 8.36374C228.322 7.7261 227.844 7.1841 227.269 6.73775C226.695 6.2914 226.046 5.95133 225.323 5.72815C224.6 5.50498 223.812 5.38808 222.972 5.38808C221.483 5.38808 220.164 5.76004 219.016 6.50395C217.867 7.24787 216.963 8.33186 216.314 9.76655C215.665 11.2012 215.336 12.9441 215.336 14.9952C215.336 17.0463 215.665 18.8529 216.314 20.277C216.974 21.7117 217.867 22.7851 219.016 23.5077C220.164 24.2304 221.473 24.5917 222.951 24.5917C223.77 24.5917 224.536 24.4854 225.259 24.2623C225.972 24.0391 226.62 23.7203 227.195 23.2952C227.769 22.8701 228.258 22.3387 228.652 21.7223C229.045 21.0953 229.322 20.3833 229.471 19.5862L234.47 19.6181C234.278 20.9147 233.874 22.1368 233.257 23.2846C232.64 24.4217 231.832 25.4313 230.832 26.3027C229.832 27.1742 228.663 27.8437 227.333 28.3326C226.004 28.8214 224.514 29.0658 222.877 29.0658C220.473 29.0658 218.324 28.5132 216.431 27.3973C214.538 26.2815 213.049 24.6767 211.964 22.5725C210.879 20.4683 210.337 17.9496 210.337 15.0058C210.337 12.0621 210.89 9.53275 211.985 7.43916C213.081 5.34557 214.58 3.73021 216.463 2.62496C218.356 1.50909 220.494 0.956467 222.887 0.956467C224.408 0.956467 225.833 1.16901 227.142 1.59411C228.45 2.0192 229.62 2.64622 230.641 3.47515C231.662 4.30409 232.513 5.30306 233.172 6.49332C233.832 7.68359 234.268 9.04389 234.48 10.5636L234.491 10.553Z" fill="white"/>
<path d="M244.744 29.1084C243.447 29.1084 242.277 28.8746 241.235 28.407C240.192 27.9394 239.373 27.2486 238.778 26.324C238.171 25.4101 237.874 24.273 237.874 22.9339C237.874 21.7755 238.086 20.8191 238.512 20.0645C238.937 19.31 239.522 18.7042 240.267 18.2472C241.011 17.7903 241.841 17.4502 242.777 17.2164C243.713 16.9826 244.67 16.8125 245.67 16.7063C246.872 16.5787 247.85 16.4725 248.595 16.3662C249.339 16.2599 249.892 16.1005 250.233 15.888C250.573 15.6648 250.743 15.3247 250.743 14.8677V14.7827C250.743 13.7731 250.445 12.9973 249.85 12.4447C249.254 11.8921 248.393 11.6158 247.265 11.6158C246.074 11.6158 245.138 11.8708 244.447 12.3916C243.755 12.9123 243.287 13.5181 243.053 14.2195L238.533 13.5818C238.895 12.3384 239.48 11.2863 240.299 10.4468C241.118 9.60719 242.117 8.96955 243.309 8.54446C244.5 8.11936 245.808 7.90681 247.244 7.90681C248.233 7.90681 249.222 8.02372 250.201 8.25752C251.179 8.49132 252.073 8.87391 252.892 9.40527C253.7 9.93664 254.359 10.6593 254.849 11.5626C255.348 12.4766 255.593 13.6031 255.593 14.974V28.7152H250.935V25.8989H250.775C250.477 26.4728 250.073 27.0042 249.541 27.493C249.009 27.9925 248.35 28.3857 247.552 28.6833C246.755 28.9809 245.819 29.1297 244.755 29.1297L244.744 29.1084ZM246.01 25.5482C246.978 25.5482 247.829 25.3569 248.541 24.9637C249.254 24.5705 249.807 24.0604 250.19 23.4228C250.573 22.7851 250.775 22.0837 250.775 21.3292V18.9061C250.626 19.0337 250.371 19.1506 250.009 19.2568C249.648 19.3631 249.243 19.4588 248.797 19.5331C248.35 19.6075 247.914 19.6819 247.478 19.7457C247.042 19.8095 246.659 19.8626 246.34 19.9051C245.617 20.0008 244.968 20.1602 244.404 20.3833C243.83 20.6065 243.383 20.9147 243.053 21.3079C242.724 21.7011 242.553 22.2112 242.553 22.8383C242.553 23.731 242.883 24.4005 243.532 24.8575C244.181 25.3144 245.01 25.5376 246.021 25.5376L246.01 25.5482Z" fill="white"/>
<path d="M260.474 28.694V8.16195H265.101V11.6477H265.346C265.771 10.4681 266.484 9.55414 267.473 8.88461C268.462 8.22571 269.643 7.88564 271.015 7.88564C272.387 7.88564 273.578 8.22571 274.535 8.89524C275.492 9.56476 276.173 10.4787 276.567 11.6371H276.779C277.237 10.5 278.002 9.58602 279.087 8.90587C280.172 8.22571 281.459 7.88564 282.948 7.88564C284.841 7.88564 286.384 8.48077 287.575 9.68166C288.766 10.8719 289.372 12.6148 289.372 14.9103V28.694H284.522V15.6649C284.522 14.3896 284.182 13.4544 283.501 12.8699C282.82 12.2747 281.991 11.9772 281.012 11.9772C279.842 11.9772 278.928 12.3385 278.279 13.0718C277.63 13.8051 277.3 14.7403 277.3 15.8987V28.7046H272.557V15.4736C272.557 14.4108 272.238 13.5713 271.6 12.9336C270.961 12.296 270.132 11.9878 269.1 11.9878C268.409 11.9878 267.771 12.1685 267.196 12.5192C266.622 12.8699 266.175 13.3694 265.835 14.007C265.495 14.6446 265.324 15.3886 265.324 16.2281V28.7153H260.485L260.474 28.694Z" fill="white"/>
<path d="M294.51 28.694V1.3285H299.349V11.5626H299.551C299.796 11.0632 300.157 10.5318 300.604 9.96854C301.061 9.4053 301.678 8.91644 302.455 8.5126C303.231 8.10876 304.22 7.90684 305.422 7.90684C307.007 7.90684 308.443 8.31068 309.719 9.11836C310.995 9.92604 312.017 11.1163 312.772 12.6891C313.527 14.262 313.899 16.1856 313.899 18.4704C313.899 20.7553 313.527 22.6364 312.793 24.2198C312.048 25.7927 311.049 27.0042 309.772 27.8331C308.496 28.6621 307.05 29.0765 305.443 29.0765C304.263 29.0765 303.295 28.8853 302.519 28.492C301.742 28.0988 301.125 27.6206 300.657 27.068C300.189 26.5153 299.828 25.984 299.562 25.4845H299.285V28.7152H294.52L294.51 28.694ZM299.253 18.4279C299.253 19.7563 299.445 20.9147 299.817 21.9137C300.2 22.9127 300.742 23.6885 301.466 24.2411C302.178 24.7937 303.05 25.0807 304.082 25.0807C305.114 25.0807 306.05 24.7937 306.773 24.2198C307.496 23.646 308.039 22.8595 308.411 21.8499C308.783 20.851 308.964 19.7032 308.964 18.4173C308.964 17.1314 308.783 16.0155 308.411 15.0272C308.049 14.0388 307.496 13.263 306.784 12.6998C306.06 12.1365 305.156 11.8602 304.082 11.8602C303.008 11.8602 302.168 12.1365 301.444 12.6785C300.721 13.2205 300.179 13.9857 299.806 14.9634C299.434 15.9411 299.253 17.0995 299.253 18.4279Z" fill="white"/>
<path d="M318.037 28.6939V8.16183H322.727V11.5838H322.94C323.312 10.4042 323.961 9.47962 324.876 8.84198C325.791 8.19371 326.833 7.87489 328.014 7.87489C328.279 7.87489 328.577 7.88552 328.918 7.90677C329.247 7.92803 329.534 7.95991 329.758 8.00242V12.4553C329.556 12.3809 329.226 12.3171 328.79 12.264C328.343 12.2109 327.918 12.179 327.514 12.179C326.631 12.179 325.844 12.3703 325.142 12.7422C324.44 13.1248 323.887 13.6455 323.493 14.3151C323.089 14.9846 322.887 15.7498 322.887 16.6318V28.7045H318.048L318.037 28.6939Z" fill="white"/>
<path d="M335.406 5.24992C334.64 5.24992 333.98 4.99486 333.427 4.47412C332.874 3.95338 332.598 3.33699 332.598 2.61433C332.598 1.89167 332.874 1.27528 333.427 0.76517C333.98 0.255057 334.64 0 335.406 0C336.171 0 336.841 0.255057 337.395 0.775798C337.948 1.29654 338.213 1.91293 338.213 2.63559C338.213 3.35825 337.937 3.97463 337.395 4.48475C336.841 4.99486 336.182 5.24992 335.406 5.24992ZM332.97 28.6939V8.16182H337.809V28.6939H332.97Z" fill="white"/>
<path d="M350.412 29.0553C348.795 29.0553 347.349 28.6408 346.083 27.8119C344.807 26.983 343.796 25.7821 343.063 24.1986C342.329 22.6151 341.956 20.7022 341.956 18.4492C341.956 16.1962 342.329 14.2407 343.084 12.6679C343.839 11.095 344.86 9.90478 346.136 9.0971C347.413 8.28942 348.849 7.88558 350.433 7.88558C351.635 7.88558 352.624 8.0875 353.401 8.49134C354.177 8.89518 354.794 9.38404 355.251 9.94729C355.709 10.5105 356.06 11.0419 356.304 11.5414H356.506V1.3285H361.356V28.694H356.592V25.4632H356.294C356.049 25.9627 355.687 26.4941 355.209 27.0467C354.73 27.5993 354.113 28.0776 353.337 28.4708C352.561 28.864 351.582 29.0553 350.412 29.0553ZM351.763 25.0807C352.784 25.0807 353.667 24.8043 354.379 24.2411C355.102 23.6885 355.645 22.902 356.028 21.9137C356.4 20.9147 356.592 19.7563 356.592 18.4279C356.592 17.0995 356.411 15.9517 356.038 14.9634C355.666 13.9857 355.124 13.2205 354.411 12.6785C353.699 12.1365 352.816 11.8602 351.773 11.8602C350.731 11.8602 349.795 12.1365 349.072 12.6998C348.349 13.263 347.806 14.0388 347.445 15.0272C347.083 16.0155 346.892 17.1526 346.892 18.4173C346.892 19.682 347.072 20.8403 347.445 21.8499C347.817 22.8489 348.359 23.646 349.093 24.2198C349.816 24.7937 350.71 25.0807 351.773 25.0807H351.763Z" fill="white"/>
<path d="M375.471 36.8237C373.737 36.8237 372.237 36.5899 370.993 36.1223C369.748 35.6547 368.738 35.0276 367.983 34.2412C367.228 33.4548 366.696 32.5834 366.409 31.6375L370.77 30.5854C370.961 30.9892 371.248 31.3825 371.62 31.7863C371.993 32.1795 372.503 32.509 373.141 32.7746C373.779 33.0403 374.588 33.1679 375.556 33.1679C376.928 33.1679 378.066 32.8384 378.97 32.1689C379.874 31.51 380.321 30.4154 380.321 28.9063V25.0167H380.076C379.831 25.5162 379.459 26.0263 378.98 26.5576C378.502 27.0784 377.874 27.5247 377.098 27.8861C376.321 28.2474 375.343 28.4174 374.162 28.4174C372.588 28.4174 371.152 28.0455 369.876 27.3016C368.6 26.5576 367.579 25.4418 366.824 23.9646C366.068 22.4767 365.696 20.6169 365.696 18.3852C365.696 16.1534 366.068 14.2299 366.824 12.6677C367.579 11.1161 368.6 9.93644 369.876 9.12876C371.152 8.32108 372.588 7.91724 374.173 7.91724C375.375 7.91724 376.364 8.11916 377.151 8.523C377.928 8.92684 378.555 9.4157 379.012 9.97895C379.48 10.5422 379.831 11.0736 380.065 11.5731H380.331V8.18292H385.107V29.0444C385.107 30.798 384.692 32.2539 383.852 33.4017C383.011 34.5494 381.863 35.4102 380.416 35.9841C378.959 36.558 377.311 36.8343 375.471 36.8343V36.8237ZM375.502 24.6022C376.524 24.6022 377.406 24.3578 378.119 23.8583C378.842 23.3588 379.385 22.6468 379.768 21.7116C380.15 20.7764 380.331 19.6498 380.331 18.3427C380.331 17.0355 380.15 15.9196 379.778 14.9526C379.406 13.9855 378.863 13.2309 378.151 12.6889C377.438 12.1469 376.555 11.8812 375.513 11.8812C374.471 11.8812 373.535 12.1576 372.812 12.7208C372.088 13.2841 371.546 14.0492 371.184 15.0269C370.823 16.0047 370.631 17.1099 370.631 18.3427C370.631 19.5755 370.812 20.702 371.184 21.6372C371.557 22.5724 372.099 23.3057 372.833 23.8264C373.556 24.3471 374.45 24.6128 375.513 24.6128L375.502 24.6022Z" fill="white"/>
<path d="M399.179 29.0978C397.116 29.0978 395.339 28.6727 393.85 27.8119C392.361 26.951 391.213 25.7289 390.404 24.1454C389.607 22.5619 389.203 20.7022 389.203 18.5554C389.203 16.4087 389.607 14.5914 390.415 12.9867C391.223 11.3926 392.351 10.1386 393.808 9.24586C395.265 8.35316 396.967 7.90681 398.934 7.90681C400.2 7.90681 401.402 8.10874 402.529 8.51257C403.657 8.91641 404.657 9.54343 405.529 10.3936C406.401 11.2438 407.082 12.3172 407.581 13.6243C408.081 14.9315 408.326 16.4831 408.326 18.2791V19.767H391.489V16.5044H403.689C403.689 15.5798 403.476 14.7508 403.082 14.0282C402.689 13.3055 402.147 12.7316 401.445 12.3065C400.743 11.8921 399.934 11.6795 398.998 11.6795C398.009 11.6795 397.137 11.9133 396.392 12.3916C395.648 12.8698 395.063 13.4968 394.648 14.262C394.233 15.0378 394.021 15.8773 394.01 16.7913V19.6394C394.01 20.8297 394.233 21.8605 394.669 22.7107C395.105 23.5609 395.722 24.2092 396.499 24.6662C397.286 25.1125 398.201 25.3463 399.254 25.3463C399.956 25.3463 400.594 25.2507 401.168 25.0487C401.742 24.8468 402.232 24.5493 402.657 24.1561C403.072 23.7628 403.391 23.274 403.604 22.7001L408.124 23.2102C407.837 24.4005 407.294 25.442 406.497 26.3347C405.699 27.2167 404.678 27.9075 403.444 28.3964C402.2 28.8852 400.785 29.1297 399.19 29.1297L399.179 29.0978Z" fill="white"/>
<path d="M136.395 46.4841V73.8495H131.428V46.4841H136.395Z" fill="white"/>
<path d="M146.415 61.8299V73.86H141.575V53.328H146.202V56.8137H146.447C146.915 55.666 147.67 54.752 148.712 54.0719C149.754 53.3917 151.041 53.0517 152.573 53.0517C153.988 53.0517 155.232 53.3599 156.285 53.9656C157.338 54.5714 158.157 55.4534 158.742 56.6012C159.327 57.749 159.614 59.1411 159.603 60.7884V73.86H154.764V61.5429C154.764 60.172 154.413 59.0986 153.7 58.3228C152.988 57.547 152.009 57.1645 150.765 57.1645C149.914 57.1645 149.169 57.3451 148.51 57.7171C147.851 58.089 147.34 58.6204 146.968 59.3112C146.596 60.002 146.415 60.8521 146.415 61.8405V61.8299Z" fill="white"/>
<path d="M174.803 53.3283V57.0691H162.997V53.3283H174.803ZM165.9 48.4078H170.74V67.6752C170.74 68.3235 170.836 68.8229 171.038 69.163C171.24 69.5031 171.506 69.7369 171.835 69.8644C172.165 69.992 172.527 70.0557 172.931 70.0557C173.229 70.0557 173.516 70.0345 173.771 69.992C174.026 69.9494 174.218 69.9069 174.356 69.8751L175.175 73.6584C174.92 73.7434 174.547 73.8497 174.069 73.956C173.59 74.0622 173.005 74.126 172.325 74.1472C171.112 74.1791 170.017 73.9985 169.049 73.5946C168.081 73.1908 167.304 72.5638 166.741 71.703C166.177 70.8528 165.9 69.7794 165.9 68.4935V48.4078Z" fill="white"/>
<path d="M187.736 74.2534C185.673 74.2534 183.896 73.8283 182.407 72.9675C180.918 72.1066 179.77 70.8845 178.961 69.301C178.164 67.7175 177.76 65.8578 177.76 63.711C177.76 61.5643 178.164 59.747 178.972 58.1423C179.78 56.5482 180.908 55.2942 182.365 54.4015C183.822 53.5088 185.524 53.0624 187.491 53.0624C188.757 53.0624 189.959 53.2643 191.086 53.6682C192.214 54.072 193.214 54.699 194.086 55.5492C194.958 56.3994 195.639 57.4728 196.138 58.7799C196.638 60.0871 196.883 61.6387 196.883 63.4347V64.9225H180.046V61.66H192.246C192.246 60.7354 192.033 59.9064 191.639 59.1838C191.246 58.4611 190.703 57.8872 190.002 57.4621C189.3 57.0477 188.491 56.8351 187.555 56.8351C186.566 56.8351 185.694 57.0689 184.949 57.5472C184.205 58.0254 183.62 58.6524 183.205 59.4176C182.79 60.1934 182.578 61.0329 182.567 61.9469V64.795C182.567 65.9853 182.79 67.0161 183.226 67.8663C183.662 68.7165 184.269 69.3648 185.056 69.8218C185.843 70.2681 186.758 70.5019 187.81 70.5019C188.512 70.5019 189.151 70.4063 189.725 70.2043C190.299 70.0024 190.789 69.7049 191.214 69.3116C191.629 68.9184 191.948 68.4296 192.161 67.8557L196.681 68.3658C196.394 69.5561 195.851 70.5976 195.054 71.4903C194.256 72.3723 193.235 73.0631 192.001 73.552C190.757 74.0408 189.342 74.2853 187.747 74.2853L187.736 74.2534Z" fill="white"/>
<path d="M200.956 73.8495V53.3174H205.646V56.7394H205.859C206.231 55.5598 206.88 54.6352 207.795 53.9976C208.709 53.3493 209.752 53.0305 210.932 53.0305C211.198 53.0305 211.496 53.0411 211.836 53.0624C212.166 53.0836 212.453 53.1155 212.677 53.158V57.6109C212.475 57.5365 212.145 57.4727 211.709 57.4196C211.262 57.3664 210.837 57.3346 210.432 57.3346C209.55 57.3346 208.763 57.5259 208.061 57.8978C207.359 58.2804 206.806 58.8011 206.412 59.4707C206.008 60.1402 205.806 60.9054 205.806 61.7874V73.8601H200.966L200.956 73.8495Z" fill="white"/>
<path d="M220.739 61.8299V73.86H215.9V53.328H220.526V56.8137H220.771C221.239 55.666 221.994 54.752 223.036 54.0719C224.079 53.3917 225.366 53.0517 226.897 53.0517C228.312 53.0517 229.556 53.3599 230.609 53.9656C231.662 54.5714 232.481 55.4534 233.066 56.6012C233.651 57.749 233.938 59.1411 233.928 60.7884V73.86H229.088V61.5429C229.088 60.172 228.737 59.0986 228.025 58.3228C227.312 57.547 226.333 57.1645 225.089 57.1645C224.238 57.1645 223.494 57.3451 222.834 57.7171C222.175 58.089 221.664 58.6204 221.292 59.3112C220.92 60.002 220.739 60.8521 220.739 61.8405V61.8299Z" fill="white"/>
<path d="M244.776 74.264C243.478 74.264 242.308 74.0302 241.266 73.5626C240.223 73.095 239.405 72.4042 238.809 71.4796C238.203 70.5657 237.905 69.4285 237.905 68.0895C237.905 66.9311 238.118 65.9747 238.543 65.2201C238.968 64.4656 239.553 63.8598 240.298 63.4028C241.042 62.9459 241.872 62.6058 242.808 62.372C243.744 62.1382 244.701 61.9681 245.701 61.8619C246.903 61.7343 247.881 61.6281 248.626 61.5218C249.37 61.4155 249.924 61.2561 250.264 61.0436C250.604 60.8204 250.774 60.4803 250.774 60.0233V59.9383C250.774 58.9287 250.477 58.1529 249.881 57.6003C249.285 57.0477 248.424 56.7714 247.296 56.7714C246.116 56.7714 245.169 57.0264 244.478 57.5472C243.787 58.0679 243.319 58.6737 243.085 59.3751L238.564 58.7374C238.926 57.494 239.511 56.4419 240.33 55.6023C241.149 54.7628 242.149 54.1251 243.34 53.7C244.531 53.275 245.839 53.0624 247.275 53.0624C248.264 53.0624 249.253 53.1793 250.232 53.4131C251.21 53.6469 252.104 54.0295 252.923 54.5609C253.731 55.0922 254.391 55.8149 254.88 56.7182C255.38 57.6322 255.624 58.7587 255.624 60.1296V73.8708H250.966V71.0545H250.806C250.508 71.6284 250.104 72.1598 249.573 72.6486C249.041 73.1481 248.381 73.5413 247.584 73.8389C246.786 74.1365 245.85 74.2853 244.786 74.2853L244.776 74.264ZM246.031 70.7145C246.999 70.7145 247.849 70.5232 248.562 70.13C249.275 69.7474 249.828 69.2266 250.211 68.589C250.594 67.9513 250.796 67.2499 250.796 66.4954V64.0724C250.647 64.1999 250.391 64.3168 250.03 64.4231C249.668 64.5293 249.264 64.625 248.817 64.6994C248.371 64.7844 247.935 64.8482 247.488 64.9119C247.052 64.9757 246.669 65.0288 246.35 65.0713C245.627 65.167 244.978 65.3264 244.414 65.5496C243.84 65.7727 243.393 66.0809 243.063 66.4741C242.734 66.8674 242.563 67.3775 242.563 68.0045C242.563 68.8972 242.893 69.5667 243.542 70.0237C244.191 70.4807 245.02 70.7038 246.031 70.7038V70.7145Z" fill="white"/>
<path d="M270.76 53.3283V57.0691H258.954V53.3283H270.76ZM261.868 48.4078H266.707V67.6752C266.707 68.3235 266.803 68.8229 267.005 69.163C267.207 69.5031 267.473 69.7369 267.803 69.8644C268.132 69.992 268.494 70.0557 268.898 70.0557C269.196 70.0557 269.483 70.0345 269.738 69.992C269.994 69.9494 270.185 69.9069 270.323 69.8751L271.142 73.6584C270.887 73.7434 270.515 73.8497 270.036 73.956C269.558 74.0622 268.973 74.126 268.292 74.1472C267.079 74.1791 265.984 73.9985 265.016 73.5946C264.048 73.1908 263.272 72.5638 262.708 71.703C262.144 70.8528 261.868 69.7794 261.868 68.4935V48.4078Z" fill="white"/>
<path d="M277.247 50.4163C276.482 50.4163 275.822 50.1612 275.269 49.6405C274.716 49.1197 274.44 48.5033 274.44 47.7807C274.44 47.058 274.716 46.4416 275.269 45.9315C275.822 45.4214 276.482 45.1663 277.247 45.1663C278.013 45.1663 278.683 45.4214 279.236 45.9421C279.789 46.4629 280.055 47.0793 280.055 47.8019C280.055 48.5246 279.779 49.141 279.236 49.6511C278.683 50.1612 278.024 50.4163 277.247 50.4163ZM274.812 73.8496V53.3175H279.651V73.8496H274.812Z" fill="white"/>
<path d="M293.595 74.2534C291.585 74.2534 289.851 73.807 288.383 72.9356C286.915 72.0535 285.777 70.8207 284.969 69.2373C284.161 67.6538 283.757 65.794 283.757 63.6791C283.757 61.5643 284.161 59.7045 284.969 58.1104C285.777 56.5163 286.915 55.2729 288.383 54.3908C289.851 53.5088 291.595 53.0624 293.595 53.0624C295.594 53.0624 297.339 53.5088 298.807 54.3908C300.274 55.2729 301.412 56.5163 302.221 58.1104C303.029 59.7045 303.433 61.5643 303.433 63.6791C303.433 65.794 303.029 67.6538 302.221 69.2373C301.412 70.8207 300.274 72.0535 298.807 72.9356C297.339 73.8176 295.594 74.2534 293.595 74.2534ZM293.627 70.385C294.712 70.385 295.626 70.0874 296.36 69.4817C297.094 68.8759 297.637 68.0682 297.998 67.0586C298.36 66.0384 298.541 64.9119 298.541 63.6685C298.541 62.4251 298.36 61.2774 297.998 60.2571C297.637 59.2369 297.094 58.4292 296.36 57.8128C295.626 57.2071 294.722 56.8989 293.627 56.8989C292.531 56.8989 291.585 57.2071 290.851 57.8128C290.117 58.4186 289.564 59.2369 289.202 60.2571C288.841 61.2774 288.66 62.4145 288.66 63.6685C288.66 64.9225 288.841 66.049 289.202 67.0586C289.564 68.0682 290.117 68.8866 290.851 69.4817C291.585 70.0874 292.51 70.385 293.627 70.385Z" fill="white"/>
<path d="M312.379 61.8299V73.86H307.539V53.328H312.166V56.8137H312.411C312.879 55.666 313.634 54.752 314.676 54.0719C315.718 53.3917 317.005 53.0517 318.537 53.0517C319.951 53.0517 321.196 53.3599 322.249 53.9656C323.302 54.5714 324.121 55.4534 324.706 56.6012C325.291 57.749 325.578 59.1411 325.567 60.7884V73.86H320.728V61.5429C320.728 60.172 320.377 59.0986 319.664 58.3228C318.952 57.547 317.973 57.1645 316.729 57.1645C315.878 57.1645 315.133 57.3451 314.474 57.7171C313.815 58.089 313.304 58.6204 312.932 59.3112C312.559 60.002 312.379 60.8521 312.379 61.8405V61.8299Z" fill="white"/>
<path d="M336.405 74.264C335.107 74.264 333.937 74.0302 332.895 73.5626C331.853 73.095 331.034 72.4042 330.438 71.4796C329.832 70.5657 329.534 69.4285 329.534 68.0895C329.534 66.9311 329.747 65.9747 330.172 65.2201C330.598 64.4656 331.183 63.8598 331.927 63.4028C332.672 62.9459 333.501 62.6058 334.437 62.372C335.373 62.1382 336.331 61.9681 337.33 61.8619C338.532 61.7343 339.511 61.6281 340.255 61.5218C341 61.4155 341.553 61.2561 341.893 61.0436C342.233 60.8204 342.404 60.4803 342.404 60.0233V59.9383C342.404 58.9287 342.106 58.1529 341.51 57.6003C340.915 57.0477 340.053 56.7714 338.926 56.7714C337.745 56.7714 336.799 57.0264 336.107 57.5472C335.416 58.0679 334.948 58.6737 334.714 59.3751L330.194 58.7374C330.555 57.494 331.14 56.4419 331.959 55.6023C332.778 54.7628 333.778 54.1251 334.969 53.7C336.16 53.275 337.469 53.0624 338.904 53.0624C339.894 53.0624 340.883 53.1793 341.861 53.4131C342.84 53.6469 343.733 54.0295 344.552 54.5609C345.36 55.0922 346.02 55.8149 346.509 56.7182C347.009 57.6322 347.254 58.7587 347.254 60.1296V73.8708H342.595V71.0545H342.436C342.138 71.6284 341.734 72.1598 341.202 72.6486C340.67 73.1481 340.011 73.5413 339.213 73.8389C338.415 74.1365 337.479 74.2853 336.416 74.2853L336.405 74.264ZM337.671 70.7145C338.639 70.7145 339.489 70.5232 340.202 70.13C340.915 69.7474 341.468 69.2266 341.851 68.589C342.233 67.9513 342.436 67.2499 342.436 66.4954V64.0724C342.287 64.1999 342.031 64.3168 341.67 64.4231C341.308 64.5293 340.904 64.625 340.457 64.6994C340.011 64.7844 339.574 64.8482 339.128 64.9119C338.692 64.9757 338.309 65.0288 337.99 65.0713C337.266 65.167 336.618 65.3264 336.054 65.5496C335.48 65.7727 335.033 66.0809 334.703 66.4741C334.374 66.8674 334.203 67.3775 334.203 68.0045C334.203 68.8972 334.533 69.5667 335.182 70.0237C335.831 70.4807 336.66 70.7038 337.671 70.7038V70.7145Z" fill="white"/>
<path d="M356.986 46.4841V73.8495H352.147V46.4841H356.986Z" fill="white"/>
<path d="M146.319 99.1638C146.192 97.9948 145.67 97.0915 144.745 96.4326C143.82 95.7843 142.629 95.4548 141.15 95.4548C140.119 95.4548 139.225 95.6143 138.491 95.9225C137.757 96.2306 137.183 96.6557 136.789 97.1871C136.396 97.7185 136.194 98.3349 136.183 99.015C136.183 99.5889 136.311 100.078 136.577 100.503C136.843 100.917 137.194 101.279 137.651 101.566C138.108 101.853 138.608 102.097 139.161 102.299C139.714 102.49 140.267 102.66 140.831 102.798L143.394 103.436C144.426 103.68 145.426 103.999 146.383 104.414C147.34 104.828 148.202 105.338 148.968 105.965C149.733 106.592 150.329 107.347 150.776 108.229C151.222 109.111 151.446 110.142 151.446 111.332C151.446 112.937 151.031 114.35 150.212 115.562C149.393 116.773 148.212 117.73 146.66 118.41C145.117 119.09 143.245 119.43 141.044 119.43C138.842 119.43 137.066 119.101 135.503 118.442C133.939 117.783 132.716 116.816 131.833 115.551C130.95 114.287 130.482 112.746 130.408 110.928H135.29C135.364 111.885 135.651 112.671 136.173 113.309C136.694 113.946 137.364 114.414 138.204 114.722C139.034 115.03 139.97 115.19 141.001 115.19C142.033 115.19 143.033 115.03 143.841 114.701C144.66 114.372 145.298 113.925 145.756 113.341C146.224 112.756 146.458 112.076 146.468 111.29C146.468 110.578 146.245 109.982 145.841 109.515C145.426 109.047 144.862 108.654 144.118 108.335C143.384 108.016 142.522 107.74 141.544 107.485L138.427 106.688C136.173 106.114 134.386 105.232 133.088 104.052C131.78 102.873 131.131 101.3 131.131 99.3445C131.131 97.7291 131.567 96.3157 132.45 95.1041C133.333 93.8926 134.524 92.9468 136.045 92.2773C137.555 91.6077 139.278 91.2677 141.193 91.2677C143.107 91.2677 144.841 91.6077 146.309 92.2773C147.776 92.9468 148.925 93.882 149.765 95.0723C150.606 96.2625 151.031 97.6228 151.063 99.1638H146.287H146.319Z" fill="white"/>
<path d="M164.633 119.42C162.581 119.42 160.826 118.973 159.358 118.07C157.89 117.167 156.763 115.923 155.976 114.34C155.189 112.746 154.795 110.918 154.795 108.845C154.795 106.773 155.199 104.913 155.997 103.319C156.795 101.725 157.933 100.471 159.401 99.5782C160.868 98.6855 162.602 98.2392 164.612 98.2392C166.282 98.2392 167.76 98.5474 169.047 99.1531C170.334 99.7589 171.366 100.62 172.132 101.736C172.898 102.841 173.334 104.137 173.44 105.615H168.813C168.622 104.626 168.186 103.797 167.484 103.138C166.782 102.479 165.846 102.139 164.687 102.139C163.697 102.139 162.825 102.405 162.081 102.936C161.336 103.468 160.751 104.222 160.337 105.211C159.922 106.199 159.72 107.389 159.72 108.771C159.72 110.152 159.922 111.375 160.337 112.374C160.751 113.373 161.326 114.148 162.07 114.69C162.815 115.232 163.687 115.498 164.697 115.498C165.41 115.498 166.048 115.36 166.612 115.094C167.175 114.818 167.654 114.425 168.037 113.915C168.42 113.394 168.686 112.767 168.824 112.033H173.451C173.334 113.489 172.908 114.775 172.164 115.891C171.419 117.007 170.419 117.879 169.143 118.506C167.867 119.133 166.367 119.451 164.644 119.451L164.633 119.42Z" fill="white"/>
<path d="M182.257 106.986V119.016H177.418V91.6504H182.151V101.98H182.396C182.874 100.822 183.619 99.9079 184.64 99.2384C185.65 98.5689 186.948 98.2288 188.511 98.2288C189.937 98.2288 191.181 98.5263 192.245 99.1215C193.308 99.7166 194.127 100.588 194.712 101.736C195.297 102.884 195.584 104.286 195.584 105.944V119.016H190.745V106.699C190.745 105.317 190.394 104.244 189.681 103.468C188.969 102.692 187.98 102.31 186.703 102.31C185.852 102.31 185.087 102.49 184.406 102.862C183.736 103.234 183.204 103.766 182.832 104.456C182.449 105.147 182.268 105.997 182.268 106.986H182.257Z" fill="white"/>
<path d="M209.465 119.42C207.455 119.42 205.721 118.973 204.253 118.102C202.785 117.22 201.647 115.987 200.839 114.404C200.031 112.82 199.627 110.96 199.627 108.845C199.627 106.731 200.031 104.871 200.839 103.277C201.647 101.683 202.785 100.439 204.253 99.5572C205.721 98.6751 207.465 98.2288 209.465 98.2288C211.464 98.2288 213.209 98.6751 214.677 99.5572C216.144 100.439 217.282 101.683 218.091 103.277C218.899 104.871 219.303 106.731 219.303 108.845C219.303 110.96 218.899 112.82 218.091 114.404C217.282 115.987 216.144 117.22 214.677 118.102C213.209 118.984 211.464 119.42 209.465 119.42ZM209.497 115.541C210.582 115.541 211.496 115.243 212.23 114.637C212.964 114.032 213.507 113.224 213.868 112.214C214.23 111.205 214.411 110.068 214.411 108.824C214.411 107.581 214.23 106.433 213.868 105.413C213.507 104.393 212.964 103.585 212.23 102.969C211.496 102.363 210.592 102.055 209.497 102.055C208.401 102.055 207.455 102.363 206.721 102.969C205.987 103.574 205.434 104.393 205.072 105.413C204.711 106.433 204.53 107.57 204.53 108.824C204.53 110.078 204.711 111.205 205.072 112.214C205.434 113.235 205.987 114.042 206.721 114.637C207.455 115.243 208.38 115.541 209.497 115.541Z" fill="white"/>
<path d="M232.364 119.42C230.354 119.42 228.62 118.973 227.152 118.102C225.685 117.22 224.547 115.987 223.738 114.404C222.93 112.82 222.526 110.96 222.526 108.845C222.526 106.731 222.93 104.871 223.738 103.277C224.547 101.683 225.685 100.439 227.152 99.5572C228.62 98.6751 230.365 98.2288 232.364 98.2288C234.364 98.2288 236.108 98.6751 237.576 99.5572C239.043 100.439 240.182 101.683 240.99 103.277C241.798 104.871 242.202 106.731 242.202 108.845C242.202 110.96 241.798 112.82 240.99 114.404C240.182 115.987 239.043 117.22 237.576 118.102C236.108 118.984 234.364 119.42 232.364 119.42ZM232.396 115.541C233.481 115.541 234.396 115.243 235.129 114.637C235.863 114.032 236.406 113.224 236.767 112.214C237.129 111.194 237.31 110.068 237.31 108.824C237.31 107.581 237.129 106.433 236.767 105.413C236.406 104.393 235.863 103.585 235.129 102.969C234.396 102.363 233.491 102.055 232.396 102.055C231.3 102.055 230.354 102.363 229.62 102.969C228.886 103.574 228.333 104.393 227.971 105.413C227.61 106.433 227.429 107.57 227.429 108.824C227.429 110.078 227.61 111.205 227.971 112.214C228.333 113.224 228.886 114.042 229.62 114.637C230.354 115.243 231.279 115.541 232.396 115.541Z" fill="white"/>
<path d="M251.147 91.6504V119.016H246.307V91.6504H251.147Z" fill="white"/>
<path d="M93.5541 54.9647C88.7467 54.9647 84.8646 51.0751 84.8646 46.2715C84.8646 41.468 88.7573 37.5784 93.5541 37.5784C98.351 37.5784 102.254 41.468 102.254 46.2715C102.254 51.0751 98.3616 54.9647 93.5541 54.9647ZM102.467 0.425095C100.361 0.148783 98.234 0 96.0961 0C81.142 0 68.5064 5.09051 59.5829 14.7189C51.2762 23.6778 46.7027 36.2499 46.7027 50.1293C46.7027 51.7021 46.7665 53.2325 46.8835 54.7522H71.7504C71.5377 53.2643 71.4313 51.7234 71.4313 50.1293C71.4313 33.9225 81.344 23.0295 96.0961 23.0295C98.2978 23.0295 100.425 23.2952 102.467 23.8159V0.425095Z" fill="white"/>
<path d="M0 54.7415H18.8469V18.2471H46.2665V0.669462H0V54.7415Z" fill="white"/>
<path d="M19.8999 70.013H0V124.085H19.8999V70.013Z" fill="white"/>
<path d="M69.4317 109.823C58.0193 105.37 52.7226 102.873 52.7226 96.7516C52.7651 94.7962 53.2863 93.0958 54.1903 91.6824C56.8493 87.5271 62.3481 87.0807 64.6987 86.8788C74.0583 86.0605 81.3014 92.5007 83.2372 94.3392L95.4898 80.1623C86.1408 73.1801 75.6218 69.3543 64.2733 69.3543C46.5963 69.4924 32.5355 81.7351 32.5355 97.5912C32.5355 111.779 41.0337 119.133 51.6803 124.106H95.1708C89.6932 117.401 80.2591 114.064 69.4317 109.834V109.823Z" fill="white"/>
</svg>
