<svg width="40" height="40" viewBox="0 0 68 96" fill="none" xmlns="http://www.w3.org/2000/svg">
<path d="M33.7299 0C18.1626 0 0 9.5136 0 33.7299C0 50.1619 25.9462 86.4864 33.7299 96C40.649 86.4864 67.4598 51.0272 67.4598 33.7299C67.4598 9.5136 49.2973 0 33.7299 0Z" fill="#E31C22"/>
<path d="M38.4072 37.2812C41.6084 37.2812 44.5758 38.3606 47.2129 40.3301L43.7568 44.3291C43.2107 43.8104 41.1674 41.9938 38.5273 42.2246C37.8642 42.2816 36.3135 42.4075 35.5635 43.5791C35.3085 43.9778 35.1614 44.4582 35.1494 45.0098C35.1496 46.7362 36.6436 47.4404 39.8623 48.6963V48.7002C42.9164 49.8933 45.5779 50.8341 47.123 52.7256H34.8555C31.8523 51.3226 29.4551 49.2481 29.4551 45.2461C29.4552 40.7737 33.4212 37.3204 38.4072 37.2812Z" fill="white"/>
<path d="M25.8906 52.7197H20.2773V37.4668H25.8906V52.7197Z" fill="white"/>
<path d="M46.667 28.3184C48.0201 28.3184 49.1211 29.4155 49.1211 30.7705C49.1209 32.1253 48.0229 33.2227 46.667 33.2227C45.3112 33.2225 44.2161 32.1252 44.2158 30.7705C44.2158 29.4156 45.314 28.3185 46.667 28.3184Z" fill="white"/>
<path d="M47.3848 17.7178C47.9877 17.7178 48.5877 17.76 49.1816 17.8379V24.4355C48.6057 24.2887 48.0057 24.2139 47.3848 24.2139C43.2235 24.2139 40.4268 27.2868 40.4268 31.8584C40.4268 32.3079 40.4566 32.7425 40.5166 33.1621H33.502C33.469 32.7335 33.4512 32.3019 33.4512 31.8584C33.4512 27.9434 34.7419 24.3972 37.085 21.8701C39.6021 19.1541 43.1665 17.7178 47.3848 17.7178Z" fill="white"/>
<path d="M33.3281 22.8643H25.5938V33.1592H20.2773V17.9062H33.3281V22.8643Z" fill="white"/>
</svg>
