<svg width="306" height="93" viewBox="0 0 306 93" fill="none" xmlns="http://www.w3.org/2000/svg">
<g clip-path="url(#clip0_49_362)">
<path d="M97.5938 4.10961V0.995544H113.974V4.10961H107.629V21.5038H103.939V4.10961H97.5938Z" fill="black"/>
<path d="M120.588 12.4882V21.5039H116.961V0.995605H120.508V8.73698H120.691C121.05 7.86886 121.608 7.18392 122.373 6.68217C123.13 6.18041 124.103 5.92555 125.275 5.92555C126.343 5.92555 127.275 6.14856 128.072 6.59456C128.869 7.04057 129.483 7.69364 129.921 8.5538C130.36 9.41395 130.575 10.4652 130.575 11.7077V21.5039H126.948V12.2732C126.948 11.2378 126.685 10.4334 126.151 9.85199C125.617 9.27059 124.876 8.98387 123.919 8.98387C123.282 8.98387 122.708 9.11927 122.198 9.39802C121.696 9.67677 121.297 10.075 121.018 10.5927C120.731 11.1104 120.596 11.7475 120.596 12.4882H120.588Z" fill="black"/>
<path d="M141.082 21.8065C139.536 21.8065 138.205 21.4879 137.089 20.8428C135.973 20.1977 135.112 19.2818 134.506 18.0951C133.908 16.9084 133.605 15.5146 133.605 13.9058C133.605 12.297 133.908 10.9351 134.514 9.73251C135.12 8.53785 135.965 7.59806 137.057 6.92905C138.149 6.26004 139.424 5.92554 140.899 5.92554C141.847 5.92554 142.748 6.07686 143.593 6.37951C144.438 6.68215 145.187 7.15205 145.841 7.7892C146.494 8.42635 147.004 9.23075 147.379 10.2104C147.754 11.19 147.937 12.3528 147.937 13.6988V14.8138H135.319V12.3687H144.462C144.462 11.6758 144.302 11.0546 144.007 10.513C143.712 9.97144 143.306 9.54136 142.78 9.22279C142.254 8.91218 141.648 8.75289 140.947 8.75289C140.205 8.75289 139.552 8.92811 138.994 9.2865C138.436 9.6449 137.997 10.1148 137.687 10.6882C137.376 11.2696 137.216 11.8988 137.208 12.5838V14.7182C137.208 15.6102 137.376 16.3828 137.702 17.0199C138.029 17.6571 138.484 18.1429 139.073 18.4854C139.663 18.8199 140.349 18.9951 141.138 18.9951C141.664 18.9951 142.142 18.9234 142.573 18.7721C143.003 18.6207 143.37 18.3977 143.689 18.1031C143.999 17.8084 144.239 17.442 144.398 17.0119L147.786 17.3942C147.57 18.2862 147.164 19.0668 146.566 19.7358C145.968 20.3968 145.203 20.9145 144.278 21.2809C143.346 21.6472 142.286 21.8304 141.09 21.8304L141.082 21.8065Z" fill="black"/>
<path d="M175.731 7.90863H171.984C171.881 7.29537 171.681 6.74583 171.395 6.26797C171.108 5.7901 170.749 5.38392 170.318 5.04942C169.888 4.71491 169.402 4.46005 168.86 4.2928C168.318 4.12555 167.728 4.03794 167.098 4.03794C165.982 4.03794 164.994 4.31669 164.133 4.8742C163.272 5.43171 162.595 6.24407 162.109 7.31926C161.622 8.39445 161.375 9.70061 161.375 11.2377C161.375 12.7749 161.622 14.1288 162.109 15.196C162.603 16.2712 163.272 17.0756 164.133 17.6172C164.994 18.1588 165.974 18.4296 167.082 18.4296C167.696 18.4296 168.27 18.3499 168.812 18.1827C169.346 18.0154 169.832 17.7765 170.263 17.4579C170.693 17.1393 171.06 16.7411 171.355 16.2792C171.65 15.8093 171.857 15.2757 171.968 14.6783L175.715 14.7022C175.571 15.6739 175.268 16.5898 174.806 17.4499C174.344 18.3021 173.738 19.0588 172.989 19.7118C172.239 20.3649 171.363 20.8667 170.366 21.233C169.37 21.5994 168.254 21.7826 167.027 21.7826C165.225 21.7826 163.615 21.3684 162.196 20.5322C160.777 19.6959 159.661 18.4933 158.848 16.9163C158.035 15.3394 157.629 13.4518 157.629 11.2457C157.629 9.03957 158.043 7.14405 158.864 5.57507C159.685 4.00608 160.809 2.7955 162.22 1.9672C163.639 1.13094 165.241 0.716797 167.034 0.716797C168.174 0.716797 169.242 0.876084 170.223 1.19466C171.203 1.51323 172.08 1.98313 172.845 2.60435C173.61 3.22557 174.248 3.97423 174.742 4.86624C175.236 5.75825 175.563 6.77769 175.723 7.91659L175.731 7.90863Z" fill="black"/>
<path d="M183.415 21.8145C182.442 21.8145 181.566 21.6392 180.784 21.2888C180.003 20.9384 179.39 20.4207 178.943 19.7278C178.489 19.0429 178.266 18.1907 178.266 17.1872C178.266 16.319 178.425 15.6023 178.744 15.0368C179.063 14.4713 179.501 14.0173 180.059 13.6749C180.617 13.3324 181.239 13.0775 181.94 12.9023C182.642 12.7271 183.359 12.5997 184.108 12.52C185.009 12.4245 185.742 12.3448 186.3 12.2652C186.858 12.1855 187.273 12.0661 187.528 11.9068C187.783 11.7395 187.91 11.4847 187.91 11.1422V11.0785C187.91 10.3219 187.687 9.74047 187.241 9.32632C186.794 8.91218 186.149 8.7051 185.304 8.7051C184.411 8.7051 183.71 8.89625 183.192 9.2865C182.673 9.67676 182.323 10.1307 182.147 10.6564L178.76 10.1785C179.031 9.24668 179.469 8.45821 180.083 7.82902C180.697 7.19984 181.446 6.72197 182.339 6.4034C183.231 6.08482 184.212 5.92554 185.288 5.92554C186.029 5.92554 186.771 6.01315 187.504 6.18836C188.237 6.36358 188.907 6.6503 189.52 7.04851C190.126 7.44673 190.62 7.98831 190.987 8.66528C191.362 9.35022 191.545 10.1944 191.545 11.2218V21.5198H188.054V19.4092H187.934C187.711 19.8393 187.408 20.2375 187.01 20.6039C186.611 20.9782 186.117 21.2729 185.519 21.4959C184.921 21.7189 184.22 21.8304 183.423 21.8304L183.415 21.8145ZM184.363 19.1464C185.089 19.1464 185.726 19.003 186.26 18.7084C186.794 18.4137 187.209 18.0314 187.496 17.5535C187.783 17.0757 187.934 16.55 187.934 15.9845V14.1687C187.823 14.2642 187.631 14.3518 187.36 14.4315C187.089 14.5111 186.786 14.5828 186.452 14.6386C186.117 14.6943 185.79 14.7501 185.463 14.7978C185.136 14.8456 184.85 14.8855 184.61 14.9173C184.068 14.989 183.582 15.1085 183.16 15.2757C182.729 15.443 182.395 15.6739 182.147 15.9686C181.9 16.2633 181.773 16.6456 181.773 17.1155C181.773 17.7845 182.02 18.2862 182.506 18.6287C182.992 18.9712 183.614 19.1384 184.371 19.1384L184.363 19.1464Z" fill="black"/>
<path d="M195.203 21.5039V6.11674H198.67V8.72906H198.854C199.173 7.84501 199.707 7.16007 200.448 6.65832C201.189 6.16453 202.074 5.90967 203.102 5.90967C204.13 5.90967 205.023 6.16453 205.741 6.66628C206.458 7.16804 206.968 7.85298 207.263 8.72109H207.422C207.765 7.8689 208.339 7.18397 209.152 6.67425C209.965 6.16453 210.93 5.90967 212.045 5.90967C213.464 5.90967 214.62 6.35567 215.513 7.25565C216.406 8.14766 216.86 9.45381 216.86 11.1741V21.5039H213.225V11.7396C213.225 10.7839 212.97 10.083 212.46 9.64496C211.95 9.19895 211.328 8.97595 210.595 8.97595C209.718 8.97595 209.033 9.24674 208.546 9.79628C208.06 10.3458 207.813 11.0467 207.813 11.9148V21.5119H204.258V11.5962C204.258 10.7998 204.019 10.1706 203.541 9.69275C203.062 9.21488 202.441 8.98392 201.667 8.98392C201.149 8.98392 200.671 9.11931 200.241 9.38213C199.81 9.64496 199.475 10.0193 199.22 10.4971C198.965 10.975 198.838 11.5325 198.838 12.1617V21.5198H195.211L195.203 21.5039Z" fill="black"/>
<path d="M220.711 21.5038V0.995544H224.338V8.66524H224.489C224.672 8.29091 224.943 7.89269 225.278 7.47058C225.621 7.04847 226.083 6.68211 226.665 6.37946C227.247 6.07682 227.988 5.92549 228.889 5.92549C230.077 5.92549 231.153 6.22814 232.109 6.83343C233.066 7.43872 233.831 8.33073 234.397 9.50946C234.963 10.6882 235.242 12.1297 235.242 13.8421C235.242 15.5544 234.963 16.9641 234.413 18.1508C233.855 19.3295 233.106 20.2375 232.149 20.8587C231.193 21.4799 230.109 21.7905 228.905 21.7905C228.02 21.7905 227.295 21.6472 226.713 21.3525C226.131 21.0578 225.669 20.6994 225.318 20.2853C224.967 19.8711 224.696 19.4729 224.497 19.0986H224.29V21.5197H220.719L220.711 21.5038ZM224.266 13.8102C224.266 14.8058 224.409 15.6739 224.688 16.4225C224.975 17.1712 225.382 17.7526 225.924 18.1667C226.458 18.5809 227.112 18.7959 227.885 18.7959C228.658 18.7959 229.359 18.5809 229.901 18.1508C230.443 17.7207 230.85 17.1314 231.129 16.3748C231.408 15.6261 231.543 14.7659 231.543 13.8023C231.543 12.8386 231.408 12.0023 231.129 11.2616C230.858 10.5209 230.443 9.93954 229.909 9.51743C229.367 9.09531 228.69 8.88824 227.885 8.88824C227.08 8.88824 226.45 9.09531 225.908 9.5015C225.366 9.90768 224.959 10.4811 224.68 11.2138C224.401 11.9466 224.266 12.8147 224.266 13.8102Z" fill="black"/>
<path d="M238.344 21.5038V6.11665H241.859V8.68118H242.018C242.297 7.79713 242.784 7.10423 243.469 6.62637C244.155 6.14054 244.936 5.90161 245.82 5.90161C246.02 5.90161 246.243 5.90958 246.498 5.9255C246.745 5.94143 246.96 5.96533 247.128 5.99718V9.33426C246.976 9.27851 246.729 9.23072 246.402 9.1909C246.067 9.15108 245.749 9.12718 245.446 9.12718C244.784 9.12718 244.194 9.27054 243.668 9.54929C243.142 9.83601 242.728 10.2263 242.433 10.728C242.13 11.2298 241.978 11.8032 241.978 12.4643V21.5118H238.352L238.344 21.5038Z" fill="black"/>
<path d="M251.358 3.9344C250.784 3.9344 250.29 3.74326 249.876 3.353C249.461 2.96275 249.254 2.50081 249.254 1.95924C249.254 1.41766 249.461 0.955725 249.876 0.573435C250.29 0.191145 250.784 0 251.358 0C251.932 0 252.434 0.191145 252.849 0.581399C253.263 0.971654 253.463 1.43359 253.463 1.97517C253.463 2.51674 253.255 2.97868 252.849 3.36097C252.434 3.74326 251.94 3.9344 251.358 3.9344ZM249.533 21.5038V6.11664H253.16V21.5038H249.533Z" fill="black"/>
<path d="M262.606 21.7747C261.395 21.7747 260.311 21.464 259.362 20.8428C258.406 20.2216 257.648 19.3216 257.098 18.1349C256.548 16.9482 256.27 15.5147 256.27 13.8262C256.27 12.1378 256.549 10.6723 257.114 9.49359C257.68 8.31487 258.446 7.42286 259.402 6.81756C260.359 6.21227 261.435 5.90962 262.622 5.90962C263.523 5.90962 264.264 6.06095 264.846 6.36359C265.428 6.66624 265.89 7.0326 266.233 7.45471C266.576 7.87682 266.839 8.27504 267.022 8.64937H267.174V0.995605H270.808V21.5039H267.237V19.0827H267.014C266.831 19.457 266.56 19.8552 266.201 20.2694C265.842 20.6835 265.38 21.0419 264.798 21.3366C264.216 21.6313 263.483 21.7747 262.606 21.7747ZM263.619 18.796C264.384 18.796 265.045 18.5889 265.579 18.1668C266.121 17.7526 266.528 17.1633 266.815 16.4226C267.094 15.6739 267.237 14.8058 267.237 13.8103C267.237 12.8147 267.102 11.9546 266.823 11.2139C266.544 10.4812 266.137 9.90774 265.603 9.50156C265.069 9.09537 264.408 8.8883 263.627 8.8883C262.845 8.8883 262.144 9.09537 261.602 9.51749C261.06 9.9396 260.653 10.521 260.382 11.2617C260.111 12.0024 259.968 12.8546 259.968 13.8023C259.968 14.7501 260.104 15.6182 260.382 16.3748C260.661 17.1235 261.068 17.7208 261.618 18.1509C262.16 18.5809 262.83 18.796 263.627 18.796H263.619Z" fill="black"/>
<path d="M281.384 27.5965C280.085 27.5965 278.961 27.4212 278.028 27.0708C277.095 26.7204 276.338 26.2505 275.772 25.6611C275.206 25.0717 274.808 24.4187 274.593 23.7098L277.861 22.9214C278.004 23.224 278.219 23.5187 278.498 23.8213C278.777 24.116 279.16 24.3629 279.638 24.562C280.116 24.7611 280.722 24.8567 281.448 24.8567C282.476 24.8567 283.329 24.6098 284.006 24.1081C284.684 23.6143 285.018 22.7939 285.018 21.663V18.748H284.835C284.652 19.1224 284.373 19.5046 284.014 19.9029C283.655 20.2931 283.185 20.6276 282.603 20.8984C282.021 21.1692 281.288 21.2966 280.403 21.2966C279.224 21.2966 278.148 21.0179 277.191 20.4604C276.235 19.9029 275.469 19.0666 274.904 17.9596C274.338 16.8445 274.059 15.4508 274.059 13.7783C274.059 12.1057 274.338 10.6642 274.904 9.49343C275.469 8.33063 276.235 7.44658 277.191 6.84129C278.148 6.236 279.224 5.93335 280.411 5.93335C281.312 5.93335 282.053 6.08467 282.643 6.38732C283.225 6.68997 283.695 7.05633 284.038 7.47844C284.389 7.90055 284.652 8.29877 284.827 8.67309H285.026V6.13246H288.605V21.7665C288.605 23.0807 288.294 24.1718 287.665 25.0319C287.035 25.8921 286.174 26.5372 285.09 26.9673C283.998 27.3973 282.763 27.6044 281.384 27.6044V27.5965ZM281.408 18.4374C282.173 18.4374 282.834 18.2542 283.369 17.8799C283.911 17.5056 284.317 16.972 284.604 16.2711C284.891 15.5702 285.026 14.726 285.026 13.7464C285.026 12.7668 284.891 11.9305 284.612 11.2058C284.333 10.481 283.926 9.91554 283.392 9.50935C282.858 9.10317 282.197 8.90406 281.416 8.90406C280.635 8.90406 279.933 9.11114 279.391 9.53325C278.849 9.95536 278.443 10.5288 278.172 11.2615C277.901 11.9942 277.757 12.8225 277.757 13.7464C277.757 14.6703 277.893 15.5145 278.172 16.2154C278.451 16.9162 278.857 17.4658 279.407 17.856C279.949 18.2463 280.619 18.4454 281.416 18.4454L281.408 18.4374Z" fill="black"/>
<path d="M299.152 21.8065C297.606 21.8065 296.275 21.4879 295.159 20.8428C294.043 20.1977 293.182 19.2818 292.576 18.0951C291.979 16.9084 291.676 15.5146 291.676 13.9058C291.676 12.297 291.979 10.9351 292.584 9.73251C293.19 8.53785 294.035 7.59806 295.127 6.92905C296.219 6.26004 297.494 5.92554 298.969 5.92554C299.918 5.92554 300.818 6.07686 301.663 6.37951C302.508 6.68215 303.257 7.15205 303.911 7.7892C304.565 8.42635 305.075 9.23075 305.449 10.2104C305.824 11.19 306.007 12.3528 306.007 13.6988V14.8138H293.39V12.3687H302.532C302.532 11.6758 302.373 11.0546 302.078 10.513C301.783 9.97144 301.376 9.54136 300.85 9.22279C300.324 8.91218 299.718 8.75289 299.017 8.75289C298.276 8.75289 297.622 8.92811 297.064 9.2865C296.506 9.6449 296.068 10.1148 295.757 10.6882C295.446 11.2696 295.287 11.8988 295.279 12.5838V14.7182C295.279 15.6102 295.446 16.3828 295.773 17.0199C296.1 17.6571 296.562 18.1429 297.144 18.4854C297.734 18.8199 298.419 18.9951 299.208 18.9951C299.734 18.9951 300.213 18.9234 300.643 18.7721C301.073 18.6207 301.44 18.3977 301.759 18.1031C302.07 17.8084 302.309 17.442 302.468 17.0119L305.856 17.3942C305.641 18.2862 305.234 19.0668 304.636 19.7358C304.039 20.3968 303.273 20.9145 302.349 21.2809C301.416 21.6472 300.356 21.8304 299.16 21.8304L299.152 21.8065Z" fill="black"/>
<path d="M102.218 34.8362V55.3444H98.4961V34.8362H102.218Z" fill="black"/>
<path d="M109.724 46.3366V55.3523H106.098V39.9651H109.565V42.5774H109.748C110.099 41.7173 110.665 41.0324 111.446 40.5226C112.227 40.0129 113.192 39.7581 114.339 39.7581C115.4 39.7581 116.332 39.989 117.121 40.443C117.91 40.897 118.524 41.558 118.963 42.4182C119.401 43.2783 119.616 44.3216 119.608 45.5561V55.3523H115.981V46.1216C115.981 45.0942 115.718 44.2898 115.184 43.7084C114.65 43.127 113.917 42.8403 112.984 42.8403C112.347 42.8403 111.789 42.9757 111.295 43.2544C110.8 43.5332 110.418 43.9314 110.139 44.4491C109.86 44.9668 109.724 45.6039 109.724 46.3446V46.3366Z" fill="black"/>
<path d="M131 39.9653V42.7688H122.152V39.9653H131ZM124.328 36.2778H127.955V50.7172C127.955 51.2031 128.027 51.5774 128.178 51.8323C128.33 52.0871 128.529 52.2623 128.776 52.3579C129.023 52.4535 129.294 52.5013 129.597 52.5013C129.82 52.5013 130.035 52.4853 130.227 52.4535C130.418 52.4216 130.562 52.3898 130.665 52.3659L131.279 55.2012C131.088 55.2649 130.809 55.3445 130.45 55.4242C130.091 55.5038 129.653 55.5516 129.143 55.5675C128.234 55.5914 127.413 55.456 126.688 55.1534C125.962 54.8508 125.381 54.3809 124.958 53.7357C124.536 53.0986 124.328 52.2942 124.328 51.3305V36.2858V36.2778Z" fill="black"/>
<path d="M140.691 55.6471C139.145 55.6471 137.814 55.3285 136.698 54.6834C135.582 54.0383 134.721 53.1224 134.116 51.9357C133.518 50.749 133.215 49.3552 133.215 47.7464C133.215 46.1376 133.518 44.7757 134.124 43.5731C134.729 42.3784 135.574 41.4386 136.666 40.7696C137.758 40.1006 139.034 39.7661 140.508 39.7661C141.457 39.7661 142.357 39.9174 143.202 40.2201C144.047 40.5227 144.796 40.9926 145.45 41.6298C146.104 42.2669 146.614 43.0713 146.988 44.0509C147.363 45.0306 147.546 46.1934 147.546 47.5393V48.6544H134.929V46.2093H144.071C144.071 45.5164 143.912 44.8952 143.617 44.3536C143.322 43.812 142.915 43.3819 142.389 43.0634C141.863 42.7528 141.257 42.5935 140.556 42.5935C139.815 42.5935 139.161 42.7687 138.603 43.1271C138.045 43.4855 137.607 43.9554 137.296 44.5288C136.985 45.1102 136.826 45.7394 136.818 46.4243V48.5588C136.818 49.4508 136.985 50.2233 137.312 50.8605C137.639 51.4976 138.093 51.9835 138.683 52.3259C139.273 52.6604 139.958 52.8356 140.747 52.8356C141.273 52.8356 141.752 52.764 142.182 52.6126C142.612 52.4613 142.979 52.2383 143.298 51.9436C143.609 51.649 143.848 51.2826 144.007 50.8525L147.395 51.2348C147.18 52.1268 146.773 52.9073 146.175 53.5763C145.578 54.2374 144.812 54.7551 143.888 55.1214C142.955 55.4878 141.895 55.671 140.699 55.671L140.691 55.6471Z" fill="black"/>
<path d="M150.602 55.3444V39.9572H154.117V42.5218H154.276C154.555 41.6377 155.041 40.9448 155.727 40.4669C156.412 39.9811 157.193 39.7422 158.078 39.7422C158.277 39.7422 158.501 39.7502 158.756 39.7661C159.003 39.782 159.218 39.8059 159.385 39.8378V43.1748C159.234 43.1191 158.987 43.0713 158.66 43.0315C158.325 42.9917 158.006 42.9678 157.704 42.9678C157.042 42.9678 156.452 43.1111 155.926 43.3899C155.4 43.6766 154.986 44.0668 154.691 44.5686C154.388 45.0704 154.236 45.6438 154.236 46.3048V55.3524H150.61L150.602 55.3444Z" fill="black"/>
<path d="M165.424 46.3366V55.3523H161.797V39.9651H165.264V42.5774H165.448C165.798 41.7173 166.364 41.0324 167.145 40.5226C167.926 40.0129 168.891 39.7581 170.039 39.7581C171.099 39.7581 172.031 39.989 172.821 40.443C173.61 40.897 174.223 41.558 174.662 42.4182C175.1 43.2783 175.315 44.3216 175.307 45.5561V55.3523H171.681V46.1216C171.681 45.0942 171.418 44.2898 170.884 43.7084C170.35 43.127 169.616 42.8403 168.684 42.8403C168.046 42.8403 167.488 42.9757 166.994 43.2544C166.5 43.5332 166.117 43.9314 165.838 44.4491C165.559 44.9668 165.424 45.6039 165.424 46.3446V46.3366Z" fill="black"/>
<path d="M183.438 55.655C182.466 55.655 181.589 55.4798 180.808 55.1294C180.027 54.779 179.413 54.2613 178.967 53.5684C178.512 52.8834 178.289 52.0312 178.289 51.0277C178.289 50.1596 178.448 49.4428 178.767 48.8774C179.086 48.3119 179.525 47.8579 180.082 47.5154C180.64 47.173 181.262 46.9181 181.964 46.7429C182.665 46.5677 183.382 46.4403 184.132 46.3606C185.032 46.265 185.766 46.1854 186.324 46.1058C186.882 46.0261 187.296 45.9066 187.551 45.7474C187.806 45.5801 187.934 45.3252 187.934 44.9828V44.9191C187.934 44.1624 187.711 43.581 187.264 43.1669C186.818 42.7528 186.172 42.5457 185.327 42.5457C184.443 42.5457 183.733 42.7368 183.215 43.1271C182.697 43.5173 182.346 43.9713 182.171 44.497L178.783 44.0191C179.054 43.0873 179.493 42.2988 180.106 41.6696C180.72 41.0404 181.469 40.5625 182.362 40.244C183.255 39.9254 184.235 39.7661 185.311 39.7661C186.053 39.7661 186.794 39.8537 187.527 40.0289C188.261 40.2042 188.93 40.4909 189.544 40.8891C190.15 41.2873 190.644 41.8289 191.011 42.5059C191.385 43.1908 191.568 44.035 191.568 45.0624V55.3604H188.077V53.2498H187.958C187.734 53.6799 187.432 54.0781 187.033 54.4445C186.635 54.8188 186.14 55.1135 185.543 55.3365C184.945 55.5595 184.243 55.671 183.446 55.671L183.438 55.655ZM184.379 52.9949C185.104 52.9949 185.742 52.8516 186.276 52.5569C186.81 52.2702 187.224 51.8799 187.511 51.4021C187.798 50.9242 187.95 50.3986 187.95 49.8331V48.0172C187.838 48.1128 187.647 48.2004 187.376 48.28C187.105 48.3597 186.802 48.4314 186.467 48.4871C186.132 48.5508 185.806 48.5986 185.471 48.6464C185.144 48.6942 184.857 48.734 184.618 48.7659C184.076 48.8375 183.59 48.957 183.167 49.1243C182.737 49.2915 182.402 49.5225 182.155 49.8172C181.908 50.1118 181.78 50.4941 181.78 50.964C181.78 51.633 182.027 52.1348 182.514 52.4773C183 52.8197 183.622 52.987 184.379 52.987V52.9949Z" fill="black"/>
<path d="M202.914 39.9653V42.7688H194.066V39.9653H202.914ZM196.25 36.2778H199.877V50.7172C199.877 51.2031 199.949 51.5774 200.1 51.8323C200.252 52.0871 200.451 52.2623 200.698 52.3579C200.945 52.4535 201.216 52.5013 201.519 52.5013C201.742 52.5013 201.958 52.4853 202.149 52.4535C202.34 52.4216 202.484 52.3898 202.587 52.3659L203.201 55.2012C203.01 55.2649 202.731 55.3445 202.372 55.4242C202.013 55.5038 201.575 55.5516 201.065 55.5675C200.156 55.5914 199.335 55.456 198.61 55.1534C197.884 54.8508 197.303 54.3809 196.88 53.7357C196.458 53.0986 196.25 52.2942 196.25 51.3305V36.2858V36.2778Z" fill="black"/>
<path d="M207.776 37.783C207.202 37.783 206.708 37.5919 206.294 37.2016C205.879 36.8114 205.672 36.3494 205.672 35.8079C205.672 35.2663 205.879 34.8044 206.294 34.4221C206.708 34.0398 207.202 33.8486 207.776 33.8486C208.35 33.8486 208.852 34.0398 209.267 34.43C209.681 34.8203 209.88 35.2822 209.88 35.8238C209.88 36.3654 209.673 36.8273 209.267 37.2096C208.852 37.5919 208.358 37.783 207.776 37.783ZM205.951 55.3445V39.9573H209.578V55.3445H205.951Z" fill="black"/>
<path d="M220.025 55.6471C218.519 55.6471 217.22 55.3126 216.12 54.6595C215.02 53.9984 214.167 53.0746 213.561 51.8879C212.955 50.7012 212.652 49.3074 212.652 47.7225C212.652 46.1376 212.955 44.7438 213.561 43.5492C214.167 42.3545 215.02 41.4227 216.12 40.7617C217.22 40.1006 218.527 39.7661 220.025 39.7661C221.524 39.7661 222.831 40.1006 223.931 40.7617C225.031 41.4227 225.884 42.3545 226.49 43.5492C227.095 44.7438 227.398 46.1376 227.398 47.7225C227.398 49.3074 227.095 50.7012 226.49 51.8879C225.884 53.0746 225.031 53.9984 223.931 54.6595C222.831 55.3205 221.524 55.6471 220.025 55.6471ZM220.049 52.748C220.862 52.748 221.548 52.525 222.098 52.0711C222.648 51.6171 223.054 51.0118 223.325 50.2552C223.596 49.4906 223.732 48.6464 223.732 47.7146C223.732 46.7827 223.596 45.9226 223.325 45.158C223.054 44.3934 222.648 43.7881 222.098 43.3262C221.548 42.8722 220.87 42.6413 220.049 42.6413C219.228 42.6413 218.519 42.8722 217.969 43.3262C217.419 43.7802 217.004 44.3934 216.733 45.158C216.462 45.9226 216.327 46.7748 216.327 47.7146C216.327 48.6544 216.462 49.4986 216.733 50.2552C217.004 51.0118 217.419 51.6251 217.969 52.0711C218.519 52.525 219.212 52.748 220.049 52.748Z" fill="black"/>
<path d="M234.103 46.3366V55.3523H230.477V39.9651H233.944V42.5774H234.127C234.478 41.7173 235.044 41.0324 235.825 40.5226C236.606 40.0129 237.571 39.7581 238.718 39.7581C239.779 39.7581 240.711 39.989 241.5 40.443C242.289 40.897 242.903 41.558 243.341 42.4182C243.78 43.2783 243.995 44.3216 243.987 45.5561V55.3523H240.36V46.1216C240.36 45.0942 240.097 44.2898 239.563 43.7084C239.029 43.127 238.296 42.8403 237.363 42.8403C236.726 42.8403 236.168 42.9757 235.674 43.2544C235.179 43.5332 234.797 43.9314 234.518 44.4491C234.239 44.9668 234.103 45.6039 234.103 46.3446V46.3366Z" fill="black"/>
<path d="M252.11 55.655C251.138 55.655 250.261 55.4798 249.48 55.1294C248.699 54.779 248.085 54.2613 247.638 53.5684C247.184 52.8834 246.961 52.0312 246.961 51.0277C246.961 50.1596 247.12 49.4428 247.439 48.8774C247.758 48.3119 248.196 47.8579 248.754 47.5154C249.312 47.173 249.934 46.9181 250.636 46.7429C251.337 46.5677 252.054 46.4403 252.804 46.3606C253.704 46.265 254.438 46.1854 254.996 46.1058C255.554 46.0261 255.968 45.9066 256.223 45.7474C256.478 45.5801 256.606 45.3252 256.606 44.9828V44.9191C256.606 44.1624 256.382 43.581 255.936 43.1669C255.49 42.7528 254.844 42.5457 253.999 42.5457C253.114 42.5457 252.405 42.7368 251.887 43.1271C251.369 43.5173 251.018 43.9713 250.843 44.497L247.455 44.0191C247.726 43.0873 248.165 42.2988 248.778 41.6696C249.392 41.0404 250.141 40.5625 251.034 40.244C251.927 39.9254 252.907 39.7661 253.983 39.7661C254.725 39.7661 255.466 39.8537 256.199 40.0289C256.932 40.2042 257.602 40.4909 258.216 40.8891C258.822 41.2873 259.316 41.8289 259.682 42.5059C260.057 43.1908 260.24 44.035 260.24 45.0624V55.3604H256.749V53.2498H256.63C256.406 53.6799 256.103 54.0781 255.705 54.4445C255.306 54.8188 254.812 55.1135 254.214 55.3365C253.617 55.5595 252.915 55.671 252.118 55.671L252.11 55.655ZM253.059 52.9949C253.784 52.9949 254.422 52.8516 254.956 52.5569C255.49 52.2702 255.904 51.8799 256.191 51.4021C256.478 50.9242 256.63 50.3986 256.63 49.8331V48.0172C256.518 48.1128 256.327 48.2004 256.056 48.28C255.785 48.3597 255.482 48.4314 255.147 48.4871C254.812 48.5508 254.485 48.5986 254.151 48.6464C253.824 48.6942 253.537 48.734 253.298 48.7659C252.756 48.8375 252.27 48.957 251.847 49.1243C251.417 49.2915 251.082 49.5225 250.835 49.8172C250.588 50.1118 250.46 50.4941 250.46 50.964C250.46 51.633 250.707 52.1348 251.193 52.4773C251.68 52.8197 252.301 52.987 253.059 52.987V52.9949Z" fill="black"/>
<path d="M267.533 34.8362V55.3444H263.906V34.8362H267.533Z" fill="black"/>
<path d="M109.655 74.3155C109.559 73.4394 109.169 72.7624 108.475 72.2686C107.782 71.7828 106.889 71.5359 105.781 71.5359C105.008 71.5359 104.338 71.6554 103.788 71.8863C103.238 72.1173 102.808 72.4359 102.513 72.8341C102.218 73.2323 102.067 73.6943 102.059 74.204C102.059 74.6341 102.154 75.0004 102.354 75.319C102.553 75.6296 102.816 75.9004 103.159 76.1154C103.501 76.3305 103.876 76.5137 104.29 76.665C104.705 76.8083 105.119 76.9358 105.542 77.0393L107.463 77.5172C108.236 77.7003 108.985 77.9393 109.703 78.2499C110.42 78.5605 111.066 78.9428 111.64 79.4127C112.213 79.8826 112.66 80.448 112.995 81.1091C113.329 81.7701 113.497 82.5427 113.497 83.4347C113.497 84.6373 113.186 85.6966 112.572 86.6045C111.958 87.5124 111.074 88.2292 109.91 88.739C108.754 89.2487 107.351 89.5035 105.701 89.5035C104.051 89.5035 102.72 89.2566 101.548 88.7629C100.377 88.2691 99.4601 87.5443 98.7986 86.5965C98.137 85.6488 97.7863 84.4939 97.7305 83.132H101.389C101.445 83.8488 101.66 84.4382 102.051 84.9161C102.441 85.3939 102.943 85.7444 103.573 85.9753C104.195 86.2063 104.896 86.3258 105.669 86.3258C106.443 86.3258 107.192 86.2063 107.798 85.9594C108.411 85.7125 108.89 85.378 109.232 84.94C109.583 84.5019 109.758 83.9922 109.766 83.4028C109.766 82.8692 109.599 82.4232 109.296 82.0728C108.985 81.7224 108.563 81.4277 108.005 81.1887C107.455 80.9498 106.809 80.7427 106.076 80.5516L103.74 79.9543C102.051 79.5242 100.712 78.8631 99.7391 77.9791C98.7587 77.0951 98.2725 75.9163 98.2725 74.4509C98.2725 73.2403 98.5993 72.181 99.2609 71.2731C99.9224 70.3652 100.815 69.6563 101.955 69.1546C103.087 68.6528 104.378 68.3979 105.813 68.3979C107.248 68.3979 108.547 68.6528 109.647 69.1546C110.747 69.6563 111.608 70.3572 112.237 71.2492C112.867 72.1412 113.186 73.1606 113.21 74.3155H109.631H109.655Z" fill="black"/>
<path d="M123.381 89.4956C121.842 89.4956 120.527 89.1611 119.427 88.4841C118.327 87.8071 117.482 86.8753 116.893 85.6886C116.303 84.4939 116.008 83.1241 116.008 81.571C116.008 80.0179 116.311 78.6242 116.909 77.4295C117.506 76.2349 118.359 75.2951 119.459 74.6261C120.559 73.9571 121.858 73.6226 123.365 73.6226C124.616 73.6226 125.724 73.8535 126.689 74.3075C127.653 74.7615 128.426 75.4066 129 76.2428C129.574 77.0711 129.901 78.0428 129.981 79.1498H126.513C126.37 78.4091 126.043 77.7879 125.517 77.2941C124.991 76.8003 124.29 76.5455 123.421 76.5455C122.679 76.5455 122.026 76.7446 121.468 77.1428C120.91 77.541 120.471 78.1065 120.161 78.8472C119.85 79.5879 119.698 80.4799 119.698 81.5153C119.698 82.5506 119.85 83.4665 120.161 84.2152C120.471 84.9638 120.902 85.5452 121.46 85.9514C122.018 86.3576 122.671 86.5567 123.429 86.5567C123.963 86.5567 124.441 86.4532 124.863 86.2541C125.286 86.047 125.645 85.7523 125.931 85.37C126.218 84.9798 126.418 84.5099 126.521 83.9603H129.989C129.901 85.0514 129.582 86.0151 129.024 86.8514C128.466 87.6876 127.717 88.3407 126.76 88.8106C125.804 89.2805 124.68 89.5195 123.389 89.5195L123.381 89.4956Z" fill="black"/>
<path d="M136.588 80.1774V89.1931H132.961V68.6848H136.508V76.4262H136.691C137.05 75.5581 137.608 74.8731 138.373 74.3714C139.13 73.8696 140.103 73.6148 141.275 73.6148C142.343 73.6148 143.275 73.8378 144.072 74.2838C144.869 74.7298 145.483 75.3829 145.922 76.243C146.36 77.1032 146.575 78.1545 146.575 79.3969V89.1931H142.948V79.9624C142.948 78.927 142.685 78.1226 142.151 77.5412C141.617 76.9598 140.876 76.6731 139.919 76.6731C139.282 76.6731 138.708 76.8085 138.198 77.0872C137.696 77.366 137.297 77.7642 137.018 78.2819C136.731 78.7996 136.596 79.4367 136.596 80.1774H136.588Z" fill="black"/>
<path d="M156.975 89.4957C155.468 89.4957 154.169 89.1612 153.069 88.5081C151.969 87.8471 151.116 86.9232 150.51 85.7365C149.904 84.5498 149.602 83.1561 149.602 81.5712C149.602 79.9862 149.904 78.5925 150.51 77.3978C151.116 76.2032 151.969 75.2713 153.069 74.6103C154.169 73.9492 155.476 73.6147 156.975 73.6147C158.473 73.6147 159.78 73.9492 160.88 74.6103C161.98 75.2713 162.833 76.2032 163.439 77.3978C164.045 78.5925 164.348 79.9862 164.348 81.5712C164.348 83.1561 164.045 84.5498 163.439 85.7365C162.833 86.9232 161.98 87.8471 160.88 88.5081C159.78 89.1692 158.473 89.4957 156.975 89.4957ZM156.998 86.5887C157.812 86.5887 158.497 86.3657 159.047 85.9117C159.597 85.4578 160.003 84.8525 160.274 84.0959C160.546 83.3392 160.681 82.4871 160.681 81.5552C160.681 80.6234 160.546 79.7632 160.274 78.9987C160.003 78.2341 159.597 77.6288 159.047 77.1669C158.497 76.7129 157.819 76.4819 156.998 76.4819C156.177 76.4819 155.468 76.7129 154.918 77.1669C154.368 77.6208 153.954 78.2341 153.683 78.9987C153.412 79.7632 153.276 80.6154 153.276 81.5552C153.276 82.495 153.412 83.3392 153.683 84.0959C153.954 84.8604 154.368 85.4657 154.918 85.9117C155.468 86.3657 156.162 86.5887 156.998 86.5887Z" fill="black"/>
<path d="M174.139 89.4957C172.632 89.4957 171.333 89.1612 170.233 88.5081C169.133 87.8471 168.28 86.9232 167.674 85.7365C167.069 84.5498 166.766 83.1561 166.766 81.5712C166.766 79.9862 167.069 78.5925 167.674 77.3978C168.28 76.2032 169.133 75.2713 170.233 74.6103C171.333 73.9492 172.64 73.6147 174.139 73.6147C175.637 73.6147 176.944 73.9492 178.044 74.6103C179.144 75.2713 179.997 76.2032 180.603 77.3978C181.209 78.5925 181.512 79.9862 181.512 81.5712C181.512 83.1561 181.209 84.5498 180.603 85.7365C179.997 86.9232 179.144 87.8471 178.044 88.5081C176.944 89.1692 175.637 89.4957 174.139 89.4957ZM174.163 86.5887C174.976 86.5887 175.661 86.3657 176.211 85.9117C176.761 85.4578 177.168 84.8525 177.439 84.0959C177.71 83.3313 177.845 82.4871 177.845 81.5552C177.845 80.6234 177.71 79.7632 177.439 78.9987C177.168 78.2341 176.761 77.6288 176.211 77.1669C175.661 76.7129 174.984 76.4819 174.163 76.4819C173.342 76.4819 172.632 76.7129 172.082 77.1669C171.532 77.6208 171.118 78.2341 170.847 78.9987C170.576 79.7632 170.44 80.6154 170.44 81.5552C170.44 82.495 170.576 83.3392 170.847 84.0959C171.118 84.8525 171.532 85.4657 172.082 85.9117C172.632 86.3657 173.326 86.5887 174.163 86.5887Z" fill="black"/>
<path d="M188.213 68.6848V89.1931H184.586V68.6848H188.213Z" fill="black"/>
<path d="M70.1115 41.1917C66.5087 41.1917 63.5993 38.2768 63.5993 34.6769C63.5993 31.077 66.5166 28.162 70.1115 28.162C73.7063 28.162 76.6316 31.077 76.6316 34.6769C76.6316 38.2768 73.7143 41.1917 70.1115 41.1917ZM76.791 0.318575C75.2128 0.111501 73.6186 0 72.0165 0C60.8095 0 51.3402 3.81494 44.6527 11.0307C38.4275 17.7446 35 27.1665 35 37.568C35 38.7467 35.0478 39.8936 35.1355 41.0325H53.7713C53.6119 39.9174 53.5322 38.7626 53.5322 37.568C53.5322 25.4223 60.961 17.2588 72.0165 17.2588C73.6665 17.2588 75.2606 17.4579 76.791 17.8482V0.318575Z" fill="#F68025"/>
<path d="M0 41.0245H14.1243V13.6748H34.6731V0.501755H0V41.0245Z" fill="#E31C22"/>
<path d="M14.9134 52.4693H0V92.992H14.9134V52.4693Z" fill="#3F9C49"/>
<path d="M52.0336 82.3038C43.4809 78.9668 39.5114 77.0951 39.5114 72.5077C39.5433 71.0422 39.9339 69.7679 40.6114 68.7087C42.6041 65.5946 46.725 65.2601 48.4866 65.1088C55.5009 64.4955 60.9291 69.3219 62.3797 70.6997L71.5621 60.0753C64.5558 54.8427 56.6726 51.9755 48.1678 51.9755C34.9202 52.079 24.3828 61.254 24.3828 73.1369C24.3828 83.7693 30.7515 89.2806 38.7303 93.008H71.323C67.218 87.9824 60.1479 85.4816 52.0336 82.3118V82.3038Z" fill="#0095D6"/>
</g>
<defs>
<clipPath id="clip0_49_362">
<rect width="306" height="93" fill="white"/>
</clipPath>
</defs>
</svg>
