<svg width="199" height="111" viewBox="0 0 199 111" fill="none" xmlns="http://www.w3.org/2000/svg">
<path d="M192.397 1.8941C192.975 1.91172 193.544 1.99075 194.094 2.15973C194.93 2.42587 195.713 2.86675 196.354 3.46149C198.798 5.69536 198.965 9.49455 196.731 11.9381L108.128 109.05C106.743 110.58 104.649 111.276 102.619 110.911C99.3629 110.319 97.2074 107.192 97.7987 103.936L108.675 44.0845L57.5946 11.0162C55.8782 9.89811 54.8568 7.96729 54.8749 5.91266C54.9141 2.61642 57.6232 -0.0439522 60.9335 0.000550296L192.397 1.8941Z" fill="#E31C22"/>
<path d="M68.1562 81.2047C69.615 80.5733 71.265 80.5463 72.7431 81.1314C74.221 81.7168 75.4059 82.8659 76.037 84.3248C77.3511 87.3628 75.9537 90.8918 72.9159 92.2066L45.411 104.107C42.373 105.421 38.8449 104.024 37.5302 100.986C36.2162 97.9479 37.6136 94.4198 40.6513 93.105L68.1562 81.2047Z" fill="#E31C22"/>
<path d="M75.1386 52.0601C78.1765 50.7463 81.7047 52.1436 83.0194 55.1812C84.3333 58.2192 82.936 61.7473 79.8983 63.0621L8.3749 93.9996C5.33688 95.3135 1.8088 93.9162 0.49404 90.8785C-0.819946 87.8405 0.577429 84.3124 3.61513 82.9976L75.1386 52.0601Z" fill="#E31C22"/>
<path d="M49.1151 37.1968C50.5739 36.5656 52.2241 36.5395 53.702 37.1246C55.1799 37.7101 56.3649 38.859 56.996 40.3179C58.3099 43.3559 56.9125 46.884 53.8749 48.1988L26.37 60.0992C26.3654 60.1012 26.361 60.103 26.3563 60.105C23.3163 61.4158 19.7891 60.0143 18.4784 56.9742C17.1644 53.9361 18.5618 50.4081 21.5995 49.0933L49.1151 37.1968Z" fill="#E31C22"/>
</svg>
