<svg width="138" height="138" viewBox="0 0 138 138" fill="none" xmlns="http://www.w3.org/2000/svg">
<path fill-rule="evenodd" clip-rule="evenodd" d="M96.6006 55.2002C119.37 55.2004 138 73.8298 138 96.5996C138 119.37 119.37 138 96.6006 138C73.8305 138 55.2002 119.37 55.2002 96.5996C55.2004 73.8297 73.8306 55.2002 96.6006 55.2002ZM96.6006 69C92.4607 69 89.7004 71.7597 89.7002 75.8994V96.5996C89.7002 100.74 92.4606 103.5 96.6006 103.5H110.4C114.54 103.5 117.3 100.74 117.3 96.5996C117.3 92.4598 114.54 89.7002 110.4 89.7002H103.5V75.8994C103.5 71.7598 100.74 69.0002 96.6006 69Z" fill="#F68025"/>
<path d="M110.4 0C114.54 4.80972e-05 117.301 2.75966 117.301 6.89941V13.7998H124.2C127.65 13.7998 131.101 17.2502 131.101 20.7002V53.8203C121.441 46.2304 109.71 41.3995 96.6006 41.3994C66.2406 41.3994 41.4006 66.2397 41.4004 96.5996C41.4004 106.26 44.1602 115.92 48.9902 124.2H6.90039C3.45038 124.2 0 121.44 0 117.3V20.7002C0 16.5602 3.45038 13.7998 6.90039 13.7998H20.7002V6.89941C20.7004 2.75977 23.46 0.000204981 27.5996 0C31.7395 0 34.4998 2.75962 34.5 6.89941V13.7998H103.5V6.89941C103.5 2.75962 106.261 0 110.4 0Z" fill="#F68025"/>
</svg>
