<svg width="139" height="139" viewBox="0 0 139 139" fill="none" xmlns="http://www.w3.org/2000/svg">
<path fill-rule="evenodd" clip-rule="evenodd" d="M56.999 41.8701C88.2797 41.8701 113.998 63.381 113.998 89.8223C113.998 118.422 84.1466 138.311 61.0508 138.311H4.05273C2.46213 138.311 1.02125 137.38 0.364258 135.932C-0.296564 134.483 -0.0425975 132.786 1.00195 131.591L11.6182 119.459C4.09985 111.133 3.41701e-05 100.392 0 89.8223C0 63.381 25.7184 41.8702 56.999 41.8701ZM32.417 81.041C27.9496 81.041 24.3125 84.6779 24.3125 89.1455C24.3125 93.6128 27.9494 97.249 32.417 97.249C36.8844 97.2488 40.5207 93.6127 40.5205 89.1455C40.5205 84.6783 36.8842 81.0412 32.417 81.041ZM56.999 81.041C52.5317 81.0411 48.8955 84.6779 48.8955 89.1455C48.8956 93.6128 52.5315 97.249 56.999 97.249C61.4666 97.249 65.1035 93.6128 65.1035 89.1455C65.1035 84.6782 61.4664 81.041 56.999 81.041ZM81.582 81.041C77.1147 81.041 73.4775 84.6779 73.4775 89.1455C73.4776 93.6128 77.1144 97.249 81.582 97.249C86.0494 97.2488 89.6855 93.6127 89.6855 89.1455C89.6855 84.6783 86.0492 81.0413 81.582 81.041Z" fill="#3F9C49"/>
<path d="M85.6338 0C114.679 3.20581e-05 138.31 19.995 138.311 44.5723C138.311 54.2669 134.602 63.6378 127.792 71.3223L137.333 82.4531C139.579 85.0688 137.72 89.1444 134.259 89.1445H122.062C121.636 58.5497 92.483 33.7656 56.999 33.7656C48.6619 33.7657 40.4435 35.1808 33.1152 37.6709C37.0555 16.3674 59.3693 0 85.6338 0Z" fill="#3F9C49"/>
</svg>
