<svg width="98" height="98" viewBox="0 0 98 125" fill="none" xmlns="http://www.w3.org/2000/svg">
<path fill-rule="evenodd" clip-rule="evenodd" d="M26.5544 0C22.495 0 18.6555 1.84539 16.1194 5.01546L2.92838 21.5042C1.03274 23.8738 0 26.8179 0 29.8524V111.364C0 118.744 5.98312 124.727 13.3636 124.727H84.6364C92.0171 124.727 98 118.744 98 111.364V13.3636C98 5.98312 92.0171 0 84.6364 0H26.5544ZM32.4866 56.6044C30.7471 54.8649 30.7471 52.0443 32.4866 50.3047L45.8502 36.9411C47.5897 35.2015 50.4103 35.2015 52.1498 36.9411L65.5135 50.3047C67.253 52.0443 67.253 54.8649 65.5135 56.6044C63.774 58.3439 60.9533 58.3439 59.2138 56.6044L53.4546 50.8451V71.2727C53.4546 73.733 51.4603 75.7273 49 75.7273C46.5398 75.7273 44.5455 73.733 44.5455 71.2727V50.8451L38.7862 56.6044C37.0467 58.3439 34.2261 58.3439 32.4866 56.6044ZM71.2727 89.0909C73.733 89.0909 75.7273 87.0966 75.7273 84.6364C75.7273 82.1761 73.733 80.1818 71.2727 80.1818H26.7273C24.267 80.1818 22.2727 82.1761 22.2727 84.6364C22.2727 87.0966 24.267 89.0909 26.7273 89.0909H71.2727Z" fill="#0095D6"/>
</svg>
